<?xml version="1.0" encoding="utf-8"?>
<!-- Generator: Adobe Illustrator 26.0.1, SVG Export Plug-In . SVG Version: 6.00 Build 0)  -->
<svg version="1.1" id="Layer_1" xmlns="http://www.w3.org/2000/svg" xmlns:xlink="http://www.w3.org/1999/xlink" x="0px" y="0px"
	 viewBox="0 0 1296.5 1080" style="enable-background:new 0 0 1296.5 1080;" xml:space="preserve">
<style type="text/css">
	.st0{fill:#F2B705;}
</style>
<g>
	<g>
		<path class="st0" d="M567.5,64.6c17.8,0,32.3-14.5,32.3-32.3c0-17.8-14.5-32.3-32.3-32.3s-32.3,14.5-32.3,32.3
			C535.2,50.1,549.7,64.6,567.5,64.6z"/>
		<path class="st0" d="M710.6,64.6c17.8,0,32.3-14.5,32.3-32.3c0-17.8-14.5-32.3-32.3-32.3s-32.3,14.5-32.3,32.3
			C678.3,50.1,692.8,64.6,710.6,64.6z"/>
		<path class="st0" d="M772.7,315H655.2H623H505.4C404.3,315,322,397.2,322,498.4c0,33.1,14.5,64.3,39.7,85.6
			c20.4,17.3,46,26.5,72.3,26.5c6.2,0,12.5-0.5,18.7-1.6c7.8-1.3,15.5-3,23-5.1c9.8,20.7,28.3,53.2,58.8,83.5
			c8.5,8.4,17.9,15.7,27.9,21.8l76.6,140.7l76.3-140.2c9.7-5.8,18.8-12.8,27.1-20.8c24.7-23.9,44.7-52.4,59.8-84.9
			c7.6,2.1,15.3,3.8,23.1,5.2c6.2,1,12.5,1.6,18.7,1.6c26.3,0,51.9-9.3,72.4-26.5c25.2-21.4,39.7-52.6,39.7-85.6
			C956.1,397.2,873.8,315,772.7,315z M710.5,655.8c-39.7,38.6-104.2,38.1-143.7-1.1c-24.4-24.2-39.8-50.4-48.2-67.6
			c20.1-10.3,38.7-23.6,55.2-39.8l65.2-63.7l65.2,63.7c16.5,16.1,35.1,29.4,55.2,39.7C746.9,613.4,730.5,636.5,710.5,655.8z
			 M886.8,549c-14.9,12.6-34.5,18-53.8,14.8c-36.7-6.2-70.1-23.2-96.7-49.1L642.5,423l-3.4-3.5l-0.1,0.1l-0.1-0.1l-3.4,3.5
			l-93.8,91.6c-26.6,26-60,43-96.7,49.1c-19.3,3.2-38.9-2.1-53.8-14.8c-14.9-12.6-23.5-31.1-23.5-50.6
			c0-75.8,61.7-137.5,137.5-137.5H623h32.2h117.5c75.8,0,137.5,61.7,137.5,137.5C910.3,517.9,901.7,536.4,886.8,549z"/>
		<path class="st0" d="M478.5,284.2c53.5,0,107,0,160.6,0s107,0,160.6,0c14.8,0,26.4-9.9,28.8-24c2.3-13.5-5.9-26.5-19.4-31.6
			c-1.8-0.7-3.8-3-4.3-5c-12.9-47.9-41.1-83.7-84.4-107.8c-1.5-0.9-3.1-1.5-5.4-2.7c0,13.3,0.1,25.9,0,38.4
			c-0.1,8.9-5.8,15.9-14.2,18.2c-7.7,2.1-16.5-1.1-20.4-8.2c-1.9-3.5-3-7.8-3.1-11.8c-0.3-17.6-0.1-35.1-0.1-52.7
			c0-14.1-7.4-21.4-21.6-21.5c-5.4,0-10.9,0-16.3,0s-10.9,0-16.3,0c-14.2,0-21.6,7.4-21.6,21.5c0,17.6,0.2,35.2-0.1,52.7
			c-0.1,4-1.1,8.3-3.1,11.8c-4,7.2-12.7,10.3-20.4,8.2c-8.5-2.3-14.1-9.3-14.2-18.2c-0.2-12.5,0-25.1,0-38.4
			c-2.3,1.1-3.9,1.8-5.4,2.7c-43.3,24.1-71.4,60-84.4,107.8c-0.5,1.9-2.5,4.3-4.3,5c-13.5,5.1-21.7,18.1-19.4,31.6
			C452.1,274.4,463.7,284.2,478.5,284.2z"/>
	</g>
	<g>
		<path class="st0" d="M0,1076.5V898.8h87.5c17.5,0,30.8,4.3,39.9,13c9.1,8.7,13.6,20.5,13.6,35.5c0,7.7-2.1,14.5-6.2,20.5
			c-4.1,6-9.3,10.2-15.5,12.7c3.7,1.4,7.3,3.3,10.6,5.5c3.3,2.2,6.2,5.1,8.6,8.6c2.4,3.5,4.3,7.6,5.8,12.3
			c1.4,4.7,2.1,10.3,2.1,16.7c0,16.2-5.4,29.1-16.3,38.7c-10.9,9.5-27.6,14.3-50,14.3H0z M35.9,929.6v38.5h46.8
			c15,0,22.5-6.4,22.5-19.3c0-6.8-1.9-11.7-5.8-14.7c-3.8-3-10.1-4.5-18.9-4.5H35.9z M83,1046.3c8.6,0,15.3-2.4,20.1-7.2
			c4.8-4.8,7.2-10.9,7.2-18.2c0-7.8-2.4-13.6-7.1-17.1c-4.7-3.6-11.3-5.4-19.7-5.4H35.9v47.9H83z"/>
		<path class="st0" d="M186.2,1019.8c0.5,10,3.4,17.9,8.7,23.8c5.3,5.9,12.2,8.8,20.7,8.8c5.7,0,10.7-1.3,15.1-3.9
			c4.4-2.6,7.2-6.2,8.4-10.8h35.9c-4.1,13.6-11.2,24-21.4,31.3c-10.2,7.3-22.3,11-36.4,11c-43.9,0-65.8-23.9-65.8-71.7
			c0-10.2,1.4-19.4,4.3-27.6c2.9-8.2,7-15.3,12.4-21.1c5.4-5.9,12.1-10.4,19.9-13.5c7.8-3.1,16.9-4.7,27-4.7
			c20.3,0,35.7,6.5,46.2,19.5c10.4,13,15.7,32.6,15.7,58.9H186.2z M241.1,997.8c-0.2-4.8-1-9.1-2.5-12.7c-1.5-3.7-3.5-6.7-6-9.1
			c-2.5-2.4-5.4-4.2-8.6-5.4c-3.2-1.2-6.5-1.7-9.9-1.7c-7,0-13,2.5-18.1,7.6c-5.1,5.1-8,12.2-8.7,21.3H241.1z"/>
		<path class="st0" d="M320.8,1019.8c0.5,10,3.4,17.9,8.7,23.8c5.3,5.9,12.2,8.8,20.7,8.8c5.7,0,10.7-1.3,15.1-3.9
			c4.4-2.6,7.2-6.2,8.4-10.8h35.9c-4.1,13.6-11.2,24-21.4,31.3c-10.2,7.3-22.3,11-36.4,11c-43.9,0-65.8-23.9-65.8-71.7
			c0-10.2,1.4-19.4,4.3-27.6c2.9-8.2,7-15.3,12.4-21.1c5.4-5.9,12.1-10.4,19.9-13.5c7.8-3.1,16.9-4.7,27-4.7
			c20.3,0,35.7,6.5,46.2,19.5c10.4,13,15.7,32.6,15.7,58.9H320.8z M375.7,997.8c-0.2-4.8-1-9.1-2.5-12.7c-1.5-3.7-3.5-6.7-6-9.1
			c-2.5-2.4-5.4-4.2-8.6-5.4c-3.2-1.2-6.5-1.7-9.9-1.7c-7,0-13,2.5-18.1,7.6c-5.1,5.1-8,12.2-8.7,21.3H375.7z"/>
		<path class="st0" d="M542.1,1028.9c-0.9,7.7-3.1,14.6-6.6,20.9c-3.5,6.2-7.9,11.6-13.2,16.1c-5.4,4.5-11.5,7.9-18.3,10.4
			c-6.9,2.5-14.3,3.7-22.3,3.7c-8.9,0-17.1-1.5-24.5-4.4c-7.4-2.9-13.8-7.4-19.1-13.4c-5.4-6-9.5-13.4-12.4-22.2
			c-2.9-8.8-4.4-19.1-4.4-30.9c0-11.8,1.5-21.9,4.4-30.5c2.9-8.6,7.1-15.6,12.4-21c5.4-5.4,11.8-9.5,19.4-12.2c7.6-2.7,16-4,25.3-4
			c8.6,0,16.4,1.2,23.4,3.5c7,2.3,13.2,5.7,18.5,10.2c5.3,4.5,9.4,9.8,12.4,16.1c3,6.2,4.8,13.2,5.4,20.9h-35.1
			c-0.9-6.8-3.6-12.1-8.2-15.9c-4.5-3.8-10.1-5.8-16.7-5.8c-3.7,0-7.2,0.6-10.4,1.9c-3.2,1.3-6,3.3-8.4,6.3
			c-2.4,2.9-4.3,6.9-5.8,11.8c-1.4,4.9-2.1,10.9-2.1,18.1c0,14.4,2.6,25.2,7.8,32.1c5.2,7,11.1,10.4,17.9,10.4
			c6.8,0,12.6-1.9,17.4-5.6s7.6-9.2,8.3-16.3H542.1z"/>
		<path class="st0" d="M636.6,1076.5v-81.6c0-10-1.7-16.8-5.2-20.5c-3.5-3.7-9.2-5.5-17.3-5.5c-4.3,0-8.1,0.8-11.5,2.5
			c-3.4,1.7-6.2,4-8.6,7c-2.3,2.9-4.1,6.3-5.2,10.2c-1.2,3.8-1.7,8-1.7,12.4v75.5h-34.8V896.7h34.8V962c1.2-2.9,3.2-5.6,5.8-8.2
			c2.6-2.6,5.6-4.8,9-6.6c3.4-1.8,7.1-3.2,11.2-4.3c4.1-1.1,8.4-1.6,12.8-1.6c13.6,0,24.6,3.7,33,11.1c8.5,7.4,12.7,17.7,12.7,30.9
			v93.1H636.6z"/>
		<path class="st0" d="M769.3,1076.5c-1.1-3.4-1.8-7.3-2.1-11.8c-4.1,4.6-9.5,8.3-16.3,11.1c-6.8,2.8-14.6,4.1-23.5,4.1
			c-15.2,0-26.3-3.3-33.3-10c-7-6.7-10.6-15.4-10.6-26.1c0-9.5,1.5-17,4.5-22.6c3-5.6,7.2-10,12.6-13.2c5.4-3.2,11.7-5.6,19.1-7.1
			c7.4-1.5,15.5-2.9,24.2-4.1c8.7-1.2,14.6-2.9,17.7-5c3-2,4.5-5.4,4.5-10c0-4.3-2-7.6-6-10c-4-2.4-9.4-3.6-16.2-3.6
			c-8,0-13.8,1.8-17.3,5.4c-3.5,3.6-5.7,8.3-6.6,14.2h-32.4c0.2-6.8,1.3-13,3.3-18.7c2-5.7,5.4-10.6,9.9-14.7
			c4.5-4.1,10.5-7.3,17.8-9.5c7.3-2.2,16.2-3.3,26.8-3.3c10.3,0,19.1,1.2,26.4,3.5c7.2,2.3,13,5.7,17.4,10c4.4,4.4,7.5,9.8,9.5,16.3
			c2,6.5,2.9,13.9,2.9,22.1v83.2H769.3z M766.9,1012c-1.8,1.8-4.4,3.2-7.8,4.3c-3.4,1.1-8.3,2.2-14.7,3.5c-10,2-16.9,4.5-20.6,7.5
			c-3.7,3-5.6,7.4-5.6,13.1c0,9.8,5.6,14.7,16.9,14.7c4.5,0,8.6-0.8,12.4-2.3c3.8-1.5,7.1-3.6,9.9-6.2c2.8-2.6,5-5.6,6.7-9.1
			c1.7-3.5,2.5-7.2,2.5-11.1L766.9,1012z"/>
		<path class="st0" d="M901.2,1076.5v-79.7c0-10.2-1.7-17-5.1-20.6c-3.4-3.6-9.2-5.4-17.4-5.4c-18,0-27,10.1-27,30.2v75.5h-34.8
			V944.9h33.2v19.3c4.1-7.5,9.5-13.2,16.3-17c6.8-3.8,15.5-5.8,26.2-5.8c6.2,0,12,0.9,17.4,2.8c5.4,1.9,9.9,4.7,13.8,8.4
			c3.8,3.7,6.9,8.3,9.1,13.8c2.2,5.4,3.3,11.7,3.3,18.9v91.2H901.2z"/>
		<path class="st0" d="M952.3,929.1v-32.4h34.8v32.4H952.3z M952.3,1076.5V944.9h34.8v131.7H952.3z"/>
		<path class="st0" d="M1121.5,1028.9c-0.9,7.7-3.1,14.6-6.6,20.9c-3.5,6.2-7.9,11.6-13.2,16.1c-5.4,4.5-11.5,7.9-18.3,10.4
			c-6.9,2.5-14.3,3.7-22.3,3.7c-8.9,0-17.1-1.5-24.5-4.4c-7.4-2.9-13.8-7.4-19.1-13.4c-5.4-6-9.5-13.4-12.4-22.2
			c-2.9-8.8-4.4-19.1-4.4-30.9c0-11.8,1.5-21.9,4.4-30.5s7.1-15.6,12.4-21c5.4-5.4,11.8-9.5,19.4-12.2c7.6-2.7,16-4,25.3-4
			c8.6,0,16.4,1.2,23.4,3.5c7,2.3,13.2,5.7,18.5,10.2c5.3,4.5,9.4,9.8,12.4,16.1c3,6.2,4.8,13.2,5.4,20.9h-35.1
			c-0.9-6.8-3.6-12.1-8.2-15.9c-4.5-3.8-10.1-5.8-16.7-5.8c-3.7,0-7.2,0.6-10.4,1.9c-3.2,1.3-6,3.3-8.4,6.3
			c-2.4,2.9-4.3,6.9-5.8,11.8c-1.4,4.9-2.1,10.9-2.1,18.1c0,14.4,2.6,25.2,7.8,32.1c5.2,7,11.1,10.4,17.9,10.4
			c6.8,0,12.6-1.9,17.4-5.6s7.6-9.2,8.3-16.3H1121.5z"/>
		<path class="st0" d="M1214,1076.5c-1.1-3.4-1.8-7.3-2.1-11.8c-4.1,4.6-9.5,8.3-16.3,11.1c-6.8,2.8-14.6,4.1-23.5,4.1
			c-15.2,0-26.3-3.3-33.3-10c-7-6.7-10.6-15.4-10.6-26.1c0-9.5,1.5-17,4.5-22.6c3-5.6,7.2-10,12.6-13.2c5.4-3.2,11.7-5.6,19.1-7.1
			c7.4-1.5,15.5-2.9,24.2-4.1c8.7-1.2,14.6-2.9,17.7-5c3-2,4.5-5.4,4.5-10c0-4.3-2-7.6-6-10c-4-2.4-9.4-3.6-16.2-3.6
			c-8,0-13.8,1.8-17.3,5.4c-3.5,3.6-5.7,8.3-6.6,14.2h-32.4c0.2-6.8,1.3-13,3.3-18.7c2-5.7,5.4-10.6,9.9-14.7
			c4.5-4.1,10.5-7.3,17.8-9.5c7.3-2.2,16.2-3.3,26.8-3.3c10.3,0,19.1,1.2,26.4,3.5c7.2,2.3,13,5.7,17.4,10c4.4,4.4,7.5,9.8,9.5,16.3
			c2,6.5,2.9,13.9,2.9,22.1v83.2H1214z M1211.6,1012c-1.8,1.8-4.4,3.2-7.8,4.3c-3.4,1.1-8.3,2.2-14.7,3.5c-10,2-16.9,4.5-20.6,7.5
			c-3.7,3-5.6,7.4-5.6,13.1c0,9.8,5.6,14.7,16.9,14.7c4.5,0,8.6-0.8,12.4-2.3c3.8-1.5,7.1-3.6,9.9-6.2c2.8-2.6,5-5.6,6.7-9.1
			c1.7-3.5,2.5-7.2,2.5-11.1L1211.6,1012z"/>
		<path class="st0" d="M1261.7,1076.5V896.7h34.8v179.8H1261.7z"/>
	</g>
</g>
</svg>
