<?xml version="1.0" encoding="utf-8"?>
<!-- Generator: Adobe Illustrator 26.0.1, SVG Export Plug-In . SVG Version: 6.00 Build 0)  -->
<svg version="1.1" id="Layer_1" xmlns="http://www.w3.org/2000/svg" xmlns:xlink="http://www.w3.org/1999/xlink" x="0px" y="0px"
	 viewBox="0 0 3816.1 1080" style="enable-background:new 0 0 3816.1 1080;" xml:space="preserve">
<style type="text/css">
	.st0{fill:#FFFAF2;}
</style>
<g>
	<g>
		<g>
			<path class="st0" d="M312.1,82.1c22.7,0,41.1-18.4,41.1-41.1c0-22.7-18.4-41.1-41.1-41.1S271,18.4,271,41.1
				C271,63.7,289.4,82.1,312.1,82.1z"/>
		</g>
		<g>
			<path class="st0" d="M493.9,82.1c22.7,0,41.1-18.4,41.1-41.1C535,18.4,516.6,0,493.9,0s-41.1,18.4-41.1,41.1
				C452.9,63.7,471.2,82.1,493.9,82.1z"/>
		</g>
		<g>
			<path class="st0" d="M572.8,400.3H423.5h-40.9H233.1C104.6,400.3,0,504.9,0,633.4c0,42,18.4,81.7,50.5,108.8
				c26,22,58.5,33.7,92,33.7c7.9,0,15.8-0.7,23.8-2c9.9-1.7,19.6-3.9,29.2-6.5c12.4,26.2,36,67.6,74.8,106.1
				c10.8,10.7,22.7,20,35.4,27.7L403,1080l97-178.1c12.3-7.4,23.9-16.2,34.4-26.5c31.3-30.4,56.8-66.7,76-107.9
				c9.6,2.7,19.4,4.9,29.4,6.5c7.9,1.3,15.9,2,23.7,2c33.4,0,66-11.8,92-33.7c32.1-27.1,50.5-66.8,50.5-108.8
				C806,504.9,701.4,400.3,572.8,400.3z M493.8,833.6c-50.5,49-132.4,48.4-182.6-1.4c-31-30.7-50.6-64.1-61.3-85.9
				c25.6-13.1,49.2-30.1,70.2-50.5l82.9-81l82.9,81c20.9,20.5,44.5,37.4,70.1,50.5C540,779.7,519.2,809,493.8,833.6z M717.8,697.7
				c-19,16-43.9,22.9-68.4,18.8c-46.6-7.8-89.1-29.4-122.9-62.4L407.4,537.6l-4.3-4.4l-0.1,0.1l-0.1-0.1l-4.3,4.4L279.4,654.1
				c-33.8,33-76.3,54.6-122.9,62.4c-24.5,4.1-49.4-2.7-68.4-18.8c-19-16-29.8-39.5-29.8-64.3c0-96.4,78.4-174.8,174.8-174.8h149.4
				h40.9h149.4c96.4,0,174.8,78.4,174.8,174.8C747.7,658.3,736.8,681.7,717.8,697.7z"/>
		</g>
		<g>
			<path class="st0" d="M198.9,361.3c68,0,136.1,0.1,204.1,0.1s136,0,204.1-0.1c18.7,0,33.5-12.5,36.6-30.5
				c3-17.1-7.5-33.7-24.6-40.2c-2.3-0.9-4.8-3.8-5.5-6.3c-16.5-60.8-52.3-106.4-107.3-137.1c-1.9-1.1-3.9-1.9-6.9-3.4
				c0,16.9,0.2,32.9-0.1,48.8c-0.2,11.3-7.4,20.2-18.1,23.2c-9.8,2.7-20.9-1.3-26-10.5c-2.4-4.4-3.8-9.9-3.9-15
				c-0.4-22.3-0.2-44.7-0.2-67c0-17.9-9.4-27.3-27.5-27.3c-6.9,0-13.8,0-20.7,0s-13.8,0-20.7,0c-18,0-27.4,9.4-27.5,27.3
				c0,22.4,0.2,44.7-0.2,67c-0.1,5-1.5,10.6-3.9,15c-5.1,9.1-16.2,13.1-26,10.5c-10.7-2.9-17.9-11.9-18.1-23.2
				c-0.2-15.9-0.1-31.9-0.1-48.8c-3,1.5-5,2.3-6.9,3.4c-55,30.6-90.8,76.2-107.3,137.1c-0.7,2.5-3.1,5.4-5.5,6.3
				c-17.2,6.5-27.6,23.1-24.6,40.2C165.4,348.7,180.2,361.3,198.9,361.3z"/>
		</g>
	</g>
	<g>
		<g>
			<path class="st0" d="M921.5,779.4V382.6h195.4c39,0,68.7,9.7,89,29c20.3,19.3,30.5,45.7,30.5,79.2c0,17.1-4.6,32.4-13.7,45.7
				c-9.2,13.3-20.7,22.8-34.7,28.4c8.4,3.2,16.2,7.3,23.6,12.2c7.4,5,13.7,11.4,19.1,19.1c5.4,7.8,9.7,16.9,12.8,27.5
				c3.2,10.6,4.8,23,4.8,37.3c0,36.2-12.2,65-36.4,86.3c-24.3,21.3-61.5,32-111.7,32H921.5z M1001.6,451.4v86h104.6
				c33.5,0,50.2-14.3,50.2-43c0-15.1-4.3-26.1-12.8-32.9c-8.6-6.8-22.6-10.2-42.1-10.2H1001.6z M1106.7,711.8
				c19.1,0,34.1-5.4,44.8-16.1c10.8-10.8,16.1-24.3,16.1-40.6c0-17.5-5.3-30.3-15.8-38.2c-10.6-8-25.2-12-43.9-12h-106.3v106.9
				H1106.7z"/>
		</g>
		<g>
			<path class="st0" d="M1337.4,652.7c1.2,22.3,7.7,40,19.4,53.2c11.7,13.1,27.2,19.7,46.3,19.7c12.7,0,24-2.9,33.8-8.7
				c9.8-5.8,16-13.8,18.8-24.2h80.1c-9.2,30.3-25.1,53.6-47.8,69.9c-22.7,16.3-49.8,24.5-81.3,24.5c-98,0-147-53.4-147-160.1
				c0-22.7,3.2-43.2,9.6-61.5c6.4-18.3,15.6-34.1,27.8-47.2c12.1-13.1,27-23.2,44.5-30.2c17.5-7,37.6-10.5,60.3-10.5
				c45.4,0,79.8,14.5,103.1,43.6c23.3,29.1,35,72.9,35,131.4H1337.4z M1459.8,603.7c-0.4-10.8-2.3-20.2-5.7-28.4
				c-3.4-8.2-7.9-14.9-13.4-20.3c-5.6-5.4-11.9-9.4-19.1-11.9c-7.2-2.6-14.5-3.9-22.1-3.9c-15.5,0-29,5.7-40.3,17
				c-11.4,11.4-17.8,27.2-19.4,47.5H1459.8z"/>
		</g>
		<g>
			<path class="st0" d="M1637.9,652.7c1.2,22.3,7.7,40,19.4,53.2c11.7,13.1,27.2,19.7,46.3,19.7c12.7,0,24-2.9,33.8-8.7
				c9.8-5.8,16-13.8,18.8-24.2h80.1c-9.2,30.3-25.1,53.6-47.8,69.9c-22.7,16.3-49.8,24.5-81.3,24.5c-98,0-147-53.4-147-160.1
				c0-22.7,3.2-43.2,9.6-61.5c6.4-18.3,15.6-34.1,27.8-47.2c12.1-13.1,27-23.2,44.5-30.2c17.5-7,37.6-10.5,60.3-10.5
				c45.4,0,79.8,14.5,103.1,43.6c23.3,29.1,35,72.9,35,131.4H1637.9z M1760.3,603.7c-0.4-10.8-2.3-20.2-5.7-28.4
				c-3.4-8.2-7.9-14.9-13.4-20.3c-5.6-5.4-11.9-9.4-19.1-11.9c-7.2-2.6-14.5-3.9-22.1-3.9c-15.5,0-29,5.7-40.3,17
				c-11.4,11.4-17.8,27.2-19.4,47.5H1760.3z"/>
		</g>
		<g>
			<path class="st0" d="M2132,673c-2,17.1-6.9,32.7-14.6,46.6c-7.8,13.9-17.6,25.9-29.6,35.8c-12,10-25.6,17.7-40.9,23.3
				c-15.3,5.6-32,8.4-49.9,8.4c-19.9,0-38.1-3.3-54.7-9.9c-16.5-6.6-30.8-16.5-42.7-29.9c-11.9-13.3-21.2-29.9-27.8-49.6
				c-6.6-19.7-9.9-42.7-9.9-69c0-26.3,3.3-49,9.9-68.1c6.6-19.1,15.8-34.7,27.8-46.9c11.9-12.1,26.4-21.2,43.3-27.2
				c16.9-6,35.7-9,56.5-9c19.1,0,36.5,2.6,52.3,7.8c15.7,5.2,29.5,12.8,41.2,22.7c11.7,10,21,21.9,27.8,35.8
				c6.8,13.9,10.8,29.5,11.9,46.6h-78.3c-2-15.1-8.1-27-18.2-35.5c-10.2-8.6-22.6-12.8-37.3-12.8c-8.4,0-16.1,1.4-23.3,4.2
				c-7.2,2.8-13.4,7.5-18.8,14c-5.4,6.6-9.7,15.3-12.8,26.3c-3.2,11-4.8,24.4-4.8,40.3c0,32.3,5.8,56.2,17.3,71.7
				c11.5,15.5,24.9,23.3,40,23.3c15.1,0,28.1-4.2,38.8-12.5s16.9-20.5,18.5-36.4H2132z"/>
		</g>
		<g>
			<path class="st0" d="M2342.8,779.4V597.1c0-22.3-3.9-37.5-11.7-45.7c-7.8-8.2-20.6-12.2-38.5-12.2c-9.6,0-18.1,1.9-25.7,5.7
				c-7.6,3.8-13.9,9-19.1,15.5c-5.2,6.6-9.1,14.1-11.7,22.7c-2.6,8.6-3.9,17.8-3.9,27.8v168.5h-77.7V377.9h77.7v145.8
				c2.8-6.4,7.1-12.4,12.8-18.2c5.8-5.8,12.4-10.7,20-14.6c7.6-4,15.9-7.2,25.1-9.6c9.2-2.4,18.7-3.6,28.7-3.6
				c30.3,0,54.9,8.3,73.8,24.8c18.9,16.5,28.4,39.5,28.4,69v207.9H2342.8z"/>
		</g>
		<g>
			<path class="st0" d="M2639.2,779.4c-2.4-7.6-4-16.3-4.8-26.3c-9.2,10.4-21.3,18.6-36.4,24.8c-15.1,6.2-32.7,9.3-52.6,9.3
				c-33.9,0-58.7-7.5-74.4-22.4c-15.7-14.9-23.6-34.4-23.6-58.3c0-21.1,3.4-37.9,10.2-50.5c6.8-12.5,16.1-22.4,28.1-29.6
				c11.9-7.2,26.2-12.4,42.7-15.8c16.5-3.4,34.5-6.5,54.1-9.3c19.5-2.8,32.7-6.5,39.4-11.1c6.8-4.6,10.2-12,10.2-22.4
				c0-9.6-4.5-17-13.4-22.4c-9-5.4-21-8.1-36.1-8.1c-17.9,0-30.8,4-38.5,11.9c-7.8,8-12.6,18.5-14.6,31.7H2457
				c0.4-15.1,2.9-29.1,7.5-41.8c4.6-12.7,12-23.7,22.1-32.9c10.2-9.2,23.4-16.2,39.7-21.2c16.3-5,36.2-7.5,59.7-7.5
				c23.1,0,42.7,2.6,58.8,7.8c16.1,5.2,29.1,12.6,38.8,22.4c9.8,9.8,16.8,21.9,21.2,36.4c4.4,14.5,6.6,31,6.6,49.3v185.8H2639.2z
				 M2633.8,635.4c-4,4-9.8,7.2-17.3,9.6c-7.6,2.4-18.5,5-32.9,7.8c-22.3,4.4-37.6,10-46,16.7c-8.4,6.8-12.5,16.5-12.5,29.3
				c0,21.9,12.5,32.9,37.6,32.9c10,0,19.2-1.7,27.8-5.1c8.6-3.4,15.9-8,22.1-13.7c6.2-5.8,11.1-12.5,14.9-20.3
				c3.8-7.8,5.7-16,5.7-24.8L2633.8,635.4z"/>
		</g>
		<g>
			<path class="st0" d="M2933.7,779.4v-178c0-22.7-3.8-38-11.4-46c-7.6-8-20.5-12-38.8-12c-40.2,0-60.3,22.5-60.3,67.5v168.5h-77.7
				V485.4h74.1v43c9.2-16.7,21.3-29.4,36.4-37.9c15.1-8.6,34.7-12.8,58.6-12.8c13.9,0,26.9,2.1,38.8,6.3
				c11.9,4.2,22.2,10.5,30.8,18.8c8.6,8.4,15.3,18.6,20.3,30.8c5,12.2,7.5,26.2,7.5,42.1v203.7H2933.7z"/>
		</g>
		<g>
			<path class="st0" d="M3047.8,450.2v-72.3h77.7v72.3H3047.8z M3047.8,779.4V485.4h77.7v293.9H3047.8z"/>
		</g>
		<g>
			<path class="st0" d="M3425.4,673c-2,17.1-6.9,32.7-14.6,46.6c-7.8,13.9-17.6,25.9-29.6,35.8c-12,10-25.6,17.7-40.9,23.3
				c-15.3,5.6-32,8.4-49.9,8.4c-19.9,0-38.1-3.3-54.7-9.9c-16.5-6.6-30.8-16.5-42.7-29.9c-11.9-13.3-21.2-29.9-27.8-49.6
				c-6.6-19.7-9.9-42.7-9.9-69c0-26.3,3.3-49,9.9-68.1c6.6-19.1,15.8-34.7,27.8-46.9c11.9-12.1,26.4-21.2,43.3-27.2
				c16.9-6,35.7-9,56.5-9c19.1,0,36.5,2.6,52.3,7.8c15.7,5.2,29.5,12.8,41.2,22.7c11.7,10,21,21.9,27.8,35.8
				c6.8,13.9,10.8,29.5,11.9,46.6h-78.3c-2-15.1-8.1-27-18.2-35.5c-10.2-8.6-22.6-12.8-37.3-12.8c-8.4,0-16.1,1.4-23.3,4.2
				c-7.2,2.8-13.4,7.5-18.8,14c-5.4,6.6-9.7,15.3-12.8,26.3c-3.2,11-4.8,24.4-4.8,40.3c0,32.3,5.8,56.2,17.3,71.7
				c11.5,15.5,24.9,23.3,40,23.3c15.1,0,28.1-4.2,38.8-12.5s16.9-20.5,18.5-36.4H3425.4z"/>
		</g>
		<g>
			<path class="st0" d="M3632.1,779.4c-2.4-7.6-4-16.3-4.8-26.3c-9.2,10.4-21.3,18.6-36.4,24.8c-15.1,6.2-32.7,9.3-52.6,9.3
				c-33.9,0-58.7-7.5-74.4-22.4c-15.7-14.9-23.6-34.4-23.6-58.3c0-21.1,3.4-37.9,10.2-50.5c6.8-12.5,16.1-22.4,28.1-29.6
				c11.9-7.2,26.2-12.4,42.7-15.8c16.5-3.4,34.5-6.5,54.1-9.3c19.5-2.8,32.7-6.5,39.4-11.1c6.8-4.6,10.2-12,10.2-22.4
				c0-9.6-4.5-17-13.4-22.4c-9-5.4-21-8.1-36.1-8.1c-17.9,0-30.8,4-38.5,11.9c-7.8,8-12.6,18.5-14.6,31.7h-72.3
				c0.4-15.1,2.9-29.1,7.5-41.8c4.6-12.7,12-23.7,22.1-32.9c10.2-9.2,23.4-16.2,39.7-21.2c16.3-5,36.2-7.5,59.7-7.5
				c23.1,0,42.7,2.6,58.8,7.8c16.1,5.2,29.1,12.6,38.8,22.4c9.8,9.8,16.8,21.9,21.2,36.4c4.4,14.5,6.6,31,6.6,49.3v185.8H3632.1z
				 M3626.7,635.4c-4,4-9.8,7.2-17.3,9.6c-7.6,2.4-18.5,5-32.9,7.8c-22.3,4.4-37.6,10-46,16.7c-8.4,6.8-12.5,16.5-12.5,29.3
				c0,21.9,12.5,32.9,37.6,32.9c10,0,19.2-1.7,27.8-5.1c8.6-3.4,15.9-8,22.1-13.7c6.2-5.8,11.1-12.5,14.9-20.3
				c3.8-7.8,5.7-16,5.7-24.8L3626.7,635.4z"/>
		</g>
		<g>
			<path class="st0" d="M3738.5,779.4V377.9h77.7v401.5H3738.5z"/>
		</g>
	</g>
</g>
</svg>
