<?xml version="1.0" encoding="utf-8"?>
<!-- Generator: Adobe Illustrator 26.0.1, SVG Export Plug-In . SVG Version: 6.00 Build 0)  -->
<svg version="1.1" id="Layer_1" xmlns="http://www.w3.org/2000/svg" xmlns:xlink="http://www.w3.org/1999/xlink" x="0px" y="0px"
	 viewBox="0 0 806 1080" style="enable-background:new 0 0 806 1080;" xml:space="preserve">
<style type="text/css">
	.st0{fill:#F2B705;}
</style>
<g>
	<path class="st0" d="M312.1,82.1c22.7,0,41.1-18.4,41.1-41.1c0-22.7-18.4-41.1-41.1-41.1S271,18.4,271,41.1
		C271,63.7,289.4,82.1,312.1,82.1z"/>
	<path class="st0" d="M493.9,82.1c22.7,0,41.1-18.4,41.1-41.1C535,18.4,516.6,0,493.9,0s-41.1,18.4-41.1,41.1
		C452.9,63.7,471.2,82.1,493.9,82.1z"/>
	<path class="st0" d="M572.8,400.3H423.5h-40.9H233.1C104.6,400.3,0,504.9,0,633.4c0,42,18.4,81.7,50.5,108.8
		c26,22,58.5,33.7,92,33.7c7.9,0,15.8-0.7,23.8-2c9.9-1.7,19.6-3.9,29.2-6.5c12.4,26.2,36,67.6,74.8,106.1
		c10.8,10.7,22.7,20,35.4,27.7L403,1080l97-178.1c12.3-7.4,23.9-16.2,34.4-26.5c31.3-30.4,56.8-66.7,76-107.9
		c9.6,2.7,19.4,4.9,29.4,6.5c7.9,1.3,15.9,2,23.7,2c33.4,0,66-11.8,92-33.7c32.1-27.1,50.5-66.8,50.5-108.8
		C806,504.9,701.4,400.3,572.8,400.3z M493.8,833.6c-50.5,49-132.4,48.4-182.6-1.4c-31-30.7-50.6-64.1-61.3-85.9
		c25.6-13.1,49.2-30.1,70.2-50.5l82.9-81l82.9,81c20.9,20.5,44.5,37.4,70.1,50.5C540,779.7,519.2,809,493.8,833.6z M717.8,697.7
		c-19,16-43.9,22.9-68.4,18.8c-46.6-7.8-89.1-29.4-122.9-62.4L407.4,537.6l-4.3-4.4l-0.1,0.1l-0.1-0.1l-4.3,4.4L279.4,654.1
		c-33.8,33-76.3,54.6-122.9,62.4c-24.5,4.1-49.4-2.7-68.4-18.8c-19-16-29.8-39.5-29.8-64.3c0-96.4,78.4-174.8,174.8-174.8h149.4
		h40.9h149.4c96.4,0,174.8,78.4,174.8,174.8C747.7,658.3,736.8,681.7,717.8,697.7z"/>
	<path class="st0" d="M198.9,361.3c68,0,136.1,0.1,204.1,0.1s136,0,204.1-0.1c18.7,0,33.5-12.5,36.6-30.5c3-17.1-7.5-33.7-24.6-40.2
		c-2.3-0.9-4.8-3.8-5.5-6.3c-16.5-60.8-52.3-106.4-107.3-137.1c-1.9-1.1-3.9-1.9-6.9-3.4c0,16.9,0.2,32.9-0.1,48.8
		c-0.2,11.3-7.4,20.2-18.1,23.2c-9.8,2.7-20.9-1.3-26-10.5c-2.4-4.4-3.8-9.9-3.9-15c-0.4-22.3-0.2-44.7-0.2-67
		c0-17.9-9.4-27.3-27.5-27.3c-6.9,0-13.8,0-20.7,0s-13.8,0-20.7,0c-18,0-27.4,9.4-27.5,27.3c0,22.4,0.2,44.7-0.2,67
		c-0.1,5-1.5,10.6-3.9,15c-5.1,9.1-16.2,13.1-26,10.5c-10.7-2.9-17.9-11.9-18.1-23.2c-0.2-15.9-0.1-31.9-0.1-48.8
		c-3,1.5-5,2.3-6.9,3.4c-55,30.6-90.8,76.2-107.3,137.1c-0.7,2.5-3.1,5.4-5.5,6.3c-17.2,6.5-27.6,23.1-24.6,40.2
		C165.4,348.7,180.2,361.3,198.9,361.3z"/>
</g>
</svg>
