<?xml version="1.0" encoding="utf-8"?>
<!-- Generator: Adobe Illustrator 26.0.1, SVG Export Plug-In . SVG Version: 6.00 Build 0)  -->
<svg version="1.1" id="Layer_1" xmlns="http://www.w3.org/2000/svg" xmlns:xlink="http://www.w3.org/1999/xlink" x="0px" y="0px"
	 viewBox="0 0 3816.1 539.5" style="enable-background:new 0 0 3816.1 539.5;" xml:space="preserve">
<style type="text/css">
	.st0{fill:#4B2E83;}
</style>
<g>
	<path class="st0" d="M0,529.3V6.3h257.6c51.5,0,90.6,12.7,117.4,38.2c26.8,25.5,40.2,60.3,40.2,104.4c0,22.6-6,42.7-18.1,60.3
		c-12.1,17.6-27.3,30.1-45.7,37.4c11,4.2,21.4,9.6,31.1,16.1c9.7,6.6,18.1,15,25.2,25.2c7.1,10.2,12.7,22.3,16.9,36.2
		c4.2,13.9,6.3,30.3,6.3,49.2c0,47.8-16,85.7-48,113.8c-32,28.1-81.1,42.1-147.3,42.1H0z M105.5,96.9v113.4h137.8
		c44.1,0,66.2-18.9,66.2-56.7c0-19.9-5.6-34.4-16.9-43.3c-11.3-8.9-29.8-13.4-55.5-13.4H105.5z M244.2,440.3
		c25.2,0,44.9-7.1,59.1-21.3c14.2-14.2,21.3-32,21.3-53.6c0-23.1-7-39.9-20.9-50.4c-13.9-10.5-33.2-15.8-57.9-15.8H105.5v141H244.2z
		"/>
	<path class="st0" d="M548.2,362.3c1.6,29.4,10.1,52.8,25.6,70.1c15.5,17.3,35.8,26,61,26c16.8,0,31.6-3.8,44.5-11.4
		c12.9-7.6,21.1-18.2,24.8-31.9h105.5c-12.1,39.9-33.1,70.6-63,92.2c-29.9,21.5-65.6,32.3-107.1,32.3
		c-129.2,0-193.8-70.4-193.8-211.1c0-29.9,4.2-57,12.6-81.1c8.4-24.1,20.6-44.9,36.6-62.2c16-17.3,35.6-30.6,58.7-39.8
		c23.1-9.2,49.6-13.8,79.6-13.8c59.9,0,105.2,19.2,135.9,57.5c30.7,38.3,46.1,96.1,46.1,173.3H548.2z M709.7,297.7
		c-0.5-14.2-3-26.6-7.5-37.4c-4.5-10.8-10.4-19.7-17.7-26.8c-7.4-7.1-15.8-12.3-25.2-15.8c-9.5-3.4-19.2-5.1-29.1-5.1
		c-20.5,0-38.2,7.5-53.2,22.5c-15,15-23.5,35.8-25.6,62.6H709.7z"/>
	<path class="st0" d="M944.4,362.3c1.6,29.4,10.1,52.8,25.6,70.1c15.5,17.3,35.8,26,61,26c16.8,0,31.6-3.8,44.5-11.4
		c12.9-7.6,21.1-18.2,24.8-31.9h105.5c-12.1,39.9-33.1,70.6-63,92.2c-29.9,21.5-65.6,32.3-107.1,32.3
		c-129.2,0-193.8-70.4-193.8-211.1c0-29.9,4.2-57,12.6-81.1c8.4-24.1,20.6-44.9,36.6-62.2c16-17.3,35.6-30.6,58.7-39.8
		c23.1-9.2,49.6-13.8,79.6-13.8c59.9,0,105.2,19.2,135.9,57.5c30.7,38.3,46.1,96.1,46.1,173.3H944.4z M1105.9,297.7
		c-0.5-14.2-3-26.6-7.5-37.4c-4.5-10.8-10.4-19.7-17.7-26.8c-7.4-7.1-15.8-12.3-25.2-15.8c-9.5-3.4-19.2-5.1-29.1-5.1
		c-20.5,0-38.2,7.5-53.2,22.5c-15,15-23.5,35.8-25.6,62.6H1105.9z"/>
	<path class="st0" d="M1595.8,389.1c-2.6,22.6-9.1,43.1-19.3,61.4c-10.2,18.4-23.2,34.1-39,47.3c-15.8,13.1-33.7,23.4-54,30.7
		c-20.2,7.3-42.1,11-65.8,11c-26.3,0-50.3-4.3-72.1-13c-21.8-8.7-40.6-21.8-56.3-39.4c-15.8-17.6-28-39.4-36.6-65.4
		c-8.7-26-13-56.3-13-91s4.3-64.6,13-89.8c8.7-25.2,20.9-45.8,36.6-61.8c15.8-16,34.8-28,57.1-35.8c22.3-7.9,47.1-11.8,74.4-11.8
		c25.2,0,48.2,3.4,68.9,10.2c20.7,6.8,38.9,16.8,54.3,29.9c15.5,13.1,27.7,28.9,36.6,47.3c8.9,18.4,14.2,38.9,15.8,61.4h-103.2
		c-2.6-19.9-10.6-35.6-24-46.9c-13.4-11.3-29.8-16.9-49.2-16.9c-11,0-21.3,1.8-30.7,5.5c-9.5,3.7-17.7,9.8-24.8,18.5
		c-7.1,8.7-12.7,20.2-16.9,34.7c-4.2,14.4-6.3,32.2-6.3,53.2c0,42.5,7.6,74,22.8,94.5c15.2,20.5,32.8,30.7,52.8,30.7
		c19.9,0,37-5.5,51.2-16.5c14.2-11,22.3-27,24.4-48H1595.8z"/>
	<path class="st0" d="M1873.8,529.3V289.1c0-29.4-5.1-49.5-15.4-60.3c-10.2-10.8-27.2-16.1-50.8-16.1c-12.6,0-23.9,2.5-33.9,7.5
		c-10,5-18.4,11.8-25.2,20.5c-6.8,8.7-11.9,18.6-15.4,29.9c-3.4,11.3-5.1,23.5-5.1,36.6v222.1h-102.4V0h102.4v192.2
		c3.7-8.4,9.3-16.4,16.9-24c7.6-7.6,16.4-14,26.4-19.3c10-5.2,21-9.5,33.1-12.6c12.1-3.1,24.7-4.7,37.8-4.7
		c39.9,0,72.3,10.9,97.3,32.7c24.9,21.8,37.4,52.1,37.4,91v274.1H1873.8z"/>
	<path class="st0" d="M2264.5,529.3c-3.1-10-5.3-21.5-6.3-34.7c-12.1,13.7-28.1,24.6-48,32.7c-20,8.1-43.1,12.2-69.3,12.2
		c-44.6,0-77.3-9.8-98.1-29.5c-20.7-19.7-31.1-45.3-31.1-76.8c0-27.8,4.5-50,13.4-66.6c8.9-16.5,21.3-29.5,37-39
		c15.8-9.5,34.5-16.4,56.3-20.9c21.8-4.5,45.5-8.5,71.3-12.2c25.7-3.7,43-8.5,52-14.6c8.9-6,13.4-15.9,13.4-29.5
		c0-12.6-5.9-22.4-17.7-29.5c-11.8-7.1-27.7-10.6-47.7-10.6c-23.6,0-40.6,5.3-50.8,15.8c-10.2,10.5-16.7,24.4-19.3,41.7h-95.3
		c0.5-19.9,3.8-38.3,9.8-55.1c6-16.8,15.8-31.2,29.1-43.3c13.4-12.1,30.8-21.4,52.4-28c21.5-6.6,47.8-9.8,78.8-9.8
		c30.4,0,56.3,3.4,77.6,10.2c21.3,6.8,38.3,16.7,51.2,29.5c12.9,12.9,22.2,28.9,28,48c5.8,19.2,8.7,40.8,8.7,65v245H2264.5z
		 M2257.4,339.5c-5.3,5.3-12.9,9.5-22.8,12.6c-10,3.2-24.4,6.6-43.3,10.2c-29.4,5.8-49.6,13.1-60.6,22.1
		c-11,8.9-16.5,21.8-16.5,38.6c0,28.9,16.5,43.3,49.6,43.3c13.1,0,25.3-2.2,36.6-6.7c11.3-4.5,21-10.5,29.1-18.1
		c8.1-7.6,14.7-16.5,19.7-26.8c5-10.2,7.5-21.1,7.5-32.7L2257.4,339.5z"/>
	<path class="st0" d="M2652.8,529.3V294.6c0-29.9-5-50.1-15-60.6c-10-10.5-27.1-15.8-51.2-15.8c-53,0-79.6,29.7-79.6,89v222.1
		h-102.4V141.8h97.7v56.7c12.1-22.1,28.1-38.7,48-50c19.9-11.3,45.7-16.9,77.2-16.9c18.4,0,35.4,2.8,51.2,8.3
		c15.8,5.5,29.3,13.8,40.6,24.8c11.3,11,20.2,24.6,26.8,40.6c6.6,16,9.8,34.5,9.8,55.5v268.6H2652.8z"/>
	<path class="st0" d="M2803.2,95.3V0h102.4v95.3H2803.2z M2803.2,529.3V141.8h102.4v387.5H2803.2z"/>
	<path class="st0" d="M3301,389.1c-2.6,22.6-9.1,43.1-19.3,61.4c-10.2,18.4-23.2,34.1-39,47.3c-15.8,13.1-33.7,23.4-54,30.7
		c-20.2,7.3-42.1,11-65.8,11c-26.3,0-50.3-4.3-72.1-13c-21.8-8.7-40.6-21.8-56.3-39.4c-15.8-17.6-28-39.4-36.6-65.4s-13-56.3-13-91
		s4.3-64.6,13-89.8s20.9-45.8,36.6-61.8c15.8-16,34.8-28,57.1-35.8c22.3-7.9,47.1-11.8,74.4-11.8c25.2,0,48.2,3.4,68.9,10.2
		c20.7,6.8,38.9,16.8,54.3,29.9c15.5,13.1,27.7,28.9,36.6,47.3c8.9,18.4,14.2,38.9,15.8,61.4h-103.2c-2.6-19.9-10.6-35.6-24-46.9
		c-13.4-11.3-29.8-16.9-49.2-16.9c-11,0-21.3,1.8-30.7,5.5c-9.5,3.7-17.7,9.8-24.8,18.5c-7.1,8.7-12.7,20.2-16.9,34.7
		c-4.2,14.4-6.3,32.2-6.3,53.2c0,42.5,7.6,74,22.8,94.5c15.2,20.5,32.8,30.7,52.8,30.7c19.9,0,37-5.5,51.2-16.5
		c14.2-11,22.3-27,24.4-48H3301z"/>
	<path class="st0" d="M3573.5,529.3c-3.1-10-5.3-21.5-6.3-34.7c-12.1,13.7-28.1,24.6-48,32.7c-20,8.1-43.1,12.2-69.3,12.2
		c-44.6,0-77.3-9.8-98.1-29.5c-20.7-19.7-31.1-45.3-31.1-76.8c0-27.8,4.5-50,13.4-66.6c8.9-16.5,21.3-29.5,37-39
		c15.8-9.5,34.5-16.4,56.3-20.9c21.8-4.5,45.5-8.5,71.3-12.2c25.7-3.7,43-8.5,52-14.6c8.9-6,13.4-15.9,13.4-29.5
		c0-12.6-5.9-22.4-17.7-29.5c-11.8-7.1-27.7-10.6-47.7-10.6c-23.6,0-40.6,5.3-50.8,15.8c-10.2,10.5-16.7,24.4-19.3,41.7h-95.3
		c0.5-19.9,3.8-38.3,9.8-55.1c6-16.8,15.8-31.2,29.1-43.3c13.4-12.1,30.8-21.4,52.4-28c21.5-6.6,47.8-9.8,78.8-9.8
		c30.4,0,56.3,3.4,77.6,10.2c21.3,6.8,38.3,16.7,51.2,29.5c12.9,12.9,22.2,28.9,28,48c5.8,19.2,8.7,40.8,8.7,65v245H3573.5z
		 M3566.4,339.5c-5.3,5.3-12.9,9.5-22.8,12.6c-10,3.2-24.4,6.6-43.3,10.2c-29.4,5.8-49.6,13.1-60.6,22.1
		c-11,8.9-16.5,21.8-16.5,38.6c0,28.9,16.5,43.3,49.6,43.3c13.1,0,25.3-2.2,36.6-6.7c11.3-4.5,21-10.5,29.1-18.1
		c8.1-7.6,14.7-16.5,19.7-26.8c5-10.2,7.5-21.1,7.5-32.7L3566.4,339.5z"/>
	<path class="st0" d="M3713.7,529.3V0h102.4v529.3H3713.7z"/>
</g>
</svg>
